<?xml version="1.0" encoding="UTF-8" ?>
<!DOCTYPE svg PUBLIC "-//W3C//DTD SVG 1.1//EN" "http://www.w3.org/Graphics/SVG/1.1/DTD/svg11.dtd">
<svg width="256pt" height="256pt" viewBox="0 0 256 256" version="1.1" xmlns="http://www.w3.org/2000/svg">
<g id="#ac79bcff">
<path fill="#ac79bc" opacity="1.00" d=" M 56.39 16.40 C 80.13 16.52 103.87 16.52 127.61 16.40 C 127.45 29.62 127.60 42.85 127.52 56.08 C 127.11 62.03 134.39 66.61 139.62 63.82 C 142.33 62.25 144.85 59.42 144.48 56.08 C 144.40 42.85 144.55 29.62 144.39 16.40 C 149.46 16.51 154.54 16.51 159.61 16.40 C 159.44 34.96 159.60 53.52 159.52 72.08 C 159.19 75.39 161.66 78.26 164.40 79.76 C 169.59 82.63 176.85 77.96 176.48 72.08 C 176.40 53.52 176.56 34.96 176.39 16.40 C 184.13 16.52 191.87 16.52 199.61 16.40 C 199.50 42.80 199.48 69.21 199.62 95.62 C 151.87 95.49 104.13 95.49 56.38 95.62 C 56.52 69.21 56.50 42.80 56.39 16.40 Z" />
<path fill="#ac79bc" opacity="1.00" d=" M 56.39 112.39 C 104.13 112.51 151.87 112.51 199.61 112.39 C 199.31 117.32 200.08 122.38 198.74 127.21 C 196.53 136.61 189.88 144.91 180.97 148.75 C 171.78 153.22 161.32 151.04 151.51 151.51 C 151.59 172.68 151.50 193.86 151.56 215.04 C 151.84 221.51 149.31 228.12 144.59 232.58 C 138.57 238.93 128.70 241.30 120.48 238.30 C 111.19 235.26 104.26 225.89 104.45 216.06 C 104.49 194.54 104.41 173.02 104.49 151.51 C 98.31 151.53 92.12 151.59 85.93 151.50 C 73.75 150.83 62.40 142.39 58.38 130.83 C 55.86 124.99 56.59 118.57 56.39 112.39 Z" />
</g>
</svg>
