<?xml version="1.0" encoding="UTF-8" ?>
<!DOCTYPE svg PUBLIC "-//W3C//DTD SVG 1.1//EN" "http://www.w3.org/Graphics/SVG/1.1/DTD/svg11.dtd">
<svg width="774pt" height="84pt" viewBox="0 0 774 84" version="1.1" xmlns="http://www.w3.org/2000/svg">
<g id="#5a4472ff">
<path fill="#5a4472" opacity="1.00" d=" M 119.29 14.45 C 120.33 10.02 127.56 10.37 128.31 14.81 C 128.93 19.49 128.46 24.26 128.57 28.97 C 125.81 29.29 123.59 30.92 121.62 32.76 C 120.71 32.12 119.78 31.48 118.87 30.84 C 119.16 25.39 118.40 19.84 119.29 14.45 Z" />
<path fill="#5a4472" opacity="1.00" d=" M 269.25 14.13 C 270.31 9.95 277.44 10.53 277.71 14.86 C 278.17 22.77 278.01 30.76 277.78 38.68 C 277.36 39.02 276.52 39.69 276.10 40.03 C 274.63 36.84 275.06 32.65 272.35 30.18 C 270.62 31.10 268.87 31.95 267.10 32.77 C 265.32 31.79 263.59 30.71 261.92 29.55 C 259.73 30.43 257.49 31.17 255.16 31.54 C 252.03 31.66 251.12 35.86 248.07 36.07 C 245.99 35.48 244.93 33.24 243.46 31.80 C 246.87 27.51 252.50 25.10 257.96 25.81 C 262.21 25.99 265.82 28.56 268.76 31.43 C 268.89 25.67 268.19 19.81 269.25 14.13 Z" />
<path fill="#5a4472" opacity="1.00" d=" M 477.19 12.14 C 479.84 10.18 484.36 11.70 484.71 15.16 C 485.07 19.37 484.85 23.61 484.80 27.83 C 482.79 29.57 480.98 31.53 478.89 33.17 C 477.50 34.02 476.28 32.57 475.15 31.98 C 475.22 27.30 475.12 22.61 475.19 17.93 C 475.25 15.90 475.40 13.46 477.19 12.14 Z" />
<path fill="#5a4472" opacity="1.00" d=" M 13.45 12.68 C 16.95 11.70 20.70 11.94 24.22 12.66 C 26.43 13.59 26.76 16.26 27.52 18.23 L 27.03 18.63 C 23.22 20.94 21.46 25.77 16.98 27.01 C 14.16 25.43 11.93 22.99 10.37 20.19 C 9.67 17.58 10.18 13.34 13.45 12.68 Z" />
<path fill="#5a4472" opacity="1.00" d=" M 44.77 13.75 C 46.89 11.62 50.25 12.25 52.98 12.09 C 55.70 12.10 59.58 12.59 60.11 15.90 C 60.58 20.39 60.02 24.93 60.40 29.43 L 59.43 29.62 C 58.61 28.08 57.83 26.49 56.70 25.14 C 54.91 24.09 53.05 25.36 51.41 26.08 C 51.11 25.63 50.53 24.73 50.23 24.28 C 50.08 25.45 49.83 26.61 49.49 27.75 C 46.49 28.63 43.34 28.70 40.72 26.79 C 42.14 22.47 42.64 17.81 44.77 13.75 Z" />
<path fill="#5a4472" opacity="1.00" d=" M 293.10 12.11 C 296.35 10.47 300.74 13.37 299.94 17.10 C 299.68 20.87 294.67 22.37 291.95 20.12 C 289.18 18.10 289.99 13.36 293.10 12.11 Z" />
<path fill="#5a4472" opacity="1.00" d=" M 546.11 12.11 C 548.89 10.72 552.94 12.67 553.06 15.91 C 553.76 19.85 548.63 22.67 545.51 20.46 C 542.33 18.71 542.79 13.44 546.11 12.11 Z" />
<path fill="#5a4472" opacity="1.00" d=" M 449.12 15.09 C 450.68 11.59 456.27 11.74 457.63 15.34 C 458.63 18.95 458.08 22.77 458.21 26.47 C 461.29 26.29 465.22 26.23 466.31 29.81 C 466.11 30.27 465.72 31.18 465.52 31.63 L 465.45 30.60 C 462.11 31.94 459.35 30.07 456.94 27.97 C 454.56 29.41 451.95 30.36 449.13 30.09 C 448.04 31.09 447.08 32.21 446.25 33.42 L 446.02 33.73 C 444.30 32.90 442.08 31.16 443.06 28.96 C 443.75 26.64 446.54 26.62 448.51 26.30 C 448.67 22.57 448.00 18.71 449.12 15.09 Z" />
<path fill="#5a4472" opacity="1.00" d=" M 609.99 14.98 C 611.37 11.72 616.60 11.82 618.19 14.86 C 619.71 18.57 618.40 22.71 619.16 26.52 C 621.44 26.41 623.83 26.42 625.92 27.49 C 624.41 29.25 622.25 30.11 620.31 31.26 C 620.08 31.80 619.62 32.88 619.39 33.42 C 619.27 33.80 619.02 34.54 618.90 34.91 C 618.42 36.66 618.01 38.42 617.56 40.17 C 614.45 37.73 615.55 32.98 613.05 30.08 C 611.09 30.97 609.22 32.24 607.08 32.62 C 605.93 32.05 604.81 31.46 603.71 30.83 C 602.67 27.45 606.76 26.43 609.28 26.24 C 609.36 22.49 608.69 18.59 609.99 14.98 Z" />
<path fill="#5a4472" opacity="1.00" d=" M 73.78 32.06 C 77.61 26.72 84.79 25.35 90.99 25.62 C 95.71 25.79 101.47 26.45 104.30 30.76 C 102.23 31.78 100.20 32.91 98.01 33.67 C 95.74 32.50 91.97 28.34 90.26 32.21 C 90.99 32.35 92.46 32.63 93.19 32.77 C 90.10 32.41 87.00 32.88 83.94 33.22 C 82.40 34.49 80.98 36.03 80.14 37.87 C 77.65 36.36 75.75 34.15 73.78 32.06 Z" />
<path fill="#5a4472" opacity="1.00" d=" M 142.46 33.49 C 147.82 25.25 159.68 23.53 168.03 27.93 C 172.86 30.73 176.53 36.23 175.84 41.97 C 174.79 38.90 173.82 35.81 172.82 32.73 C 170.18 33.31 167.42 36.55 164.79 34.27 C 162.40 32.25 159.21 31.29 156.22 32.56 C 153.25 33.06 151.43 35.52 150.07 37.96 C 146.63 40.41 144.45 35.55 142.46 33.49 Z" />
<path fill="#5a4472" opacity="1.00" d=" M 187.36 28.97 C 187.91 25.87 192.15 24.66 194.50 26.55 C 195.88 27.71 195.95 29.62 196.37 31.23 C 198.44 28.41 201.07 25.16 205.02 25.71 C 208.80 25.63 215.02 28.23 213.18 32.96 C 211.51 36.79 206.96 34.74 204.09 33.73 C 201.58 32.91 199.45 35.23 196.98 35.29 C 193.69 35.01 191.92 38.06 189.81 40.00 C 189.13 39.93 187.78 39.77 187.11 39.69 C 186.89 36.13 186.57 32.49 187.36 28.97 Z" />
<path fill="#5a4472" opacity="1.00" d=" M 291.84 26.88 C 293.94 24.88 297.80 25.42 299.20 27.99 C 300.60 30.42 299.58 33.28 299.78 35.91 C 298.11 36.00 297.69 34.31 297.01 33.15 C 296.33 33.05 294.97 32.87 294.29 32.77 C 292.93 32.48 291.56 32.27 290.19 32.15 C 290.39 30.33 290.37 28.21 291.84 26.88 Z" />
<path fill="#5a4472" opacity="1.00" d=" M 312.69 35.49 C 317.66 24.70 333.36 22.51 342.09 29.85 C 345.13 32.44 346.96 36.19 347.44 40.13 C 346.82 40.77 345.58 42.04 344.95 42.68 C 343.47 39.55 343.07 36.07 341.73 32.89 C 339.68 33.05 338.02 34.35 336.29 35.31 C 333.07 31.89 327.62 31.49 323.80 34.13 C 320.81 34.45 319.65 37.86 317.01 38.85 C 315.18 38.60 314.12 36.54 312.69 35.49 Z" />
<path fill="#5a4472" opacity="1.00" d=" M 357.88 31.32 C 358.17 28.93 359.05 25.82 361.99 25.69 C 365.24 25.19 367.27 28.31 367.31 31.20 C 364.18 31.59 361.02 31.45 357.88 31.32 Z" />
<path fill="#5a4472" opacity="1.00" d=" M 367.57 31.64 C 372.11 25.47 381.55 23.67 387.84 28.15 C 392.48 31.52 393.08 37.91 392.43 43.17 C 391.17 43.03 390.37 42.27 390.04 40.88 C 389.34 38.56 388.69 36.23 387.82 33.98 C 385.99 34.75 384.17 35.55 382.37 36.37 C 379.81 32.26 374.58 32.70 370.84 34.78 C 367.60 35.54 366.01 39.03 363.04 40.09 C 360.91 39.46 359.66 37.34 358.26 35.74 C 358.08 34.38 358.01 33.00 358.03 31.63 C 361.21 31.62 364.39 31.71 367.57 31.64 Z" />
<path fill="#5a4472" opacity="1.00" d=" M 409.00 27.84 C 414.07 25.08 420.20 25.27 425.65 26.63 C 429.04 27.57 432.69 29.51 433.89 33.05 C 435.34 36.35 430.90 38.54 428.21 37.85 C 426.08 36.00 424.30 33.65 421.70 32.41 C 418.80 31.44 415.05 31.53 412.87 33.94 C 411.43 35.31 413.44 37.35 412.29 38.82 C 411.17 40.09 410.04 41.71 408.20 41.86 C 406.36 40.98 404.99 39.43 403.47 38.14 C 402.72 33.99 405.32 29.70 409.00 27.84 Z" />
<path fill="#5a4472" opacity="1.00" d=" M 498.19 34.50 C 503.13 25.32 516.07 23.22 524.69 28.17 C 529.68 30.96 532.60 36.65 532.61 42.29 C 532.05 42.15 530.95 41.89 530.39 41.75 C 529.51 38.81 528.94 35.79 527.81 32.93 C 525.51 33.27 523.53 34.58 521.42 35.44 C 518.05 31.84 512.02 31.27 508.29 34.60 C 506.54 36.15 504.77 37.67 502.97 39.16 C 501.05 37.97 499.58 36.25 498.19 34.50 Z" />
<path fill="#5a4472" opacity="1.00" d=" M 543.43 38.01 C 543.65 34.14 542.00 28.62 545.96 26.16 C 549.98 24.09 553.99 28.32 553.21 32.35 C 551.91 32.60 550.14 31.78 549.19 32.99 C 547.43 34.84 545.54 36.57 543.43 38.01 Z" />
<path fill="#5a4472" opacity="1.00" d=" M 564.68 33.19 C 566.89 28.52 572.05 25.94 577.06 25.77 C 582.14 25.47 587.64 26.08 591.82 29.23 C 594.17 30.95 595.89 34.13 594.35 36.97 L 593.18 36.28 C 592.35 35.58 591.52 34.87 590.70 34.18 C 587.92 34.26 585.35 33.31 582.85 32.26 C 579.96 31.28 576.97 32.20 574.14 32.88 C 573.42 32.97 571.98 33.14 571.25 33.22 C 569.90 36.29 570.04 40.04 567.79 42.65 C 566.12 39.74 565.33 36.45 564.68 33.19 Z" />
<path fill="#5a4472" opacity="1.00" d=" M 636.64 27.61 C 638.45 24.79 643.40 25.10 644.78 28.18 C 645.74 30.74 645.37 33.52 645.47 36.20 C 643.68 37.38 641.82 39.94 639.39 38.77 C 638.07 37.81 636.93 36.62 635.75 35.51 C 635.84 32.88 635.22 29.99 636.64 27.61 Z" />
<path fill="#5a4472" opacity="1.00" d=" M 660.45 31.33 C 660.57 28.36 662.63 25.10 666.02 25.68 C 669.55 25.90 670.63 30.00 670.25 32.92 C 668.86 33.46 667.51 34.17 666.02 34.36 C 663.78 34.22 662.17 32.53 660.45 31.33 Z" />
<path fill="#5a4472" opacity="1.00" d=" M 682.64 28.43 C 683.48 25.44 687.93 24.76 689.93 27.00 C 691.17 28.32 691.16 30.24 691.42 31.93 C 695.82 25.82 704.86 23.70 711.32 27.72 C 714.94 30.00 716.90 34.41 716.59 38.63 C 716.17 39.92 715.64 41.17 714.99 42.36 C 713.66 40.47 713.38 38.12 712.78 35.96 C 711.24 36.29 709.70 37.31 708.11 36.89 C 705.72 36.31 704.56 33.56 702.07 33.27 C 698.97 32.58 696.00 34.20 693.88 36.33 C 691.58 36.27 689.30 36.12 687.02 36.27 C 686.82 36.47 686.42 36.88 686.22 37.08 C 685.02 38.21 683.75 39.27 682.39 40.20 C 682.31 36.28 681.85 32.30 682.64 28.43 Z" />
<path fill="#5a4472" opacity="1.00" d=" M 729.43 33.99 C 731.49 28.12 738.90 24.91 744.94 25.84 C 749.18 26.19 752.83 28.84 755.48 32.02 C 755.05 28.78 757.29 24.80 761.06 25.75 C 764.36 26.18 764.60 30.04 764.65 32.65 C 763.50 33.12 762.35 33.61 761.21 34.09 C 760.30 36.75 759.46 39.44 758.50 42.09 C 756.54 39.64 756.54 36.32 755.09 33.61 C 754.33 33.97 752.81 34.68 752.05 35.03 C 752.29 35.48 752.78 36.39 753.03 36.84 C 750.49 32.28 742.82 31.53 739.51 35.47 C 737.41 34.37 736.24 38.89 733.91 38.45 C 731.98 37.48 730.72 35.63 729.43 33.99 Z" />
</g>
<g id="#a27fccff">
<path fill="#a27fcc" opacity="1.00" d=" M 16.98 27.01 C 21.46 25.77 23.22 20.94 27.03 18.63 L 27.59 18.34 C 30.04 27.95 32.35 37.61 35.34 47.06 C 37.21 40.32 38.98 33.56 40.72 26.79 C 43.34 28.70 46.49 28.63 49.49 27.75 C 46.72 38.59 44.15 49.48 41.25 60.29 C 40.52 63.52 37.23 65.82 33.93 64.94 C 31.02 64.50 29.57 61.60 28.89 59.04 C 26.05 48.03 23.33 36.97 20.58 25.94 C 19.28 27.25 20.05 29.40 19.81 31.05 C 19.84 40.71 19.90 50.37 19.79 60.02 C 19.97 63.44 16.27 66.24 13.08 64.67 C 10.41 63.71 10.13 60.47 10.12 58.05 C 10.32 45.43 9.81 32.80 10.37 20.19 C 11.93 22.99 14.16 25.43 16.98 27.01 Z" />
<path fill="#a27fcc" opacity="1.00" d=" M 51.41 26.08 C 53.05 25.36 54.91 24.09 56.70 25.14 C 57.83 26.49 58.61 28.08 59.43 29.62 C 61.03 35.57 60.00 41.83 60.28 47.92 C 60.16 52.28 60.50 56.66 60.14 61.02 C 59.90 64.17 56.11 66.04 53.38 64.60 C 51.20 63.68 50.64 61.10 50.63 58.97 C 50.48 48.26 50.70 37.54 50.51 26.82 L 51.41 26.08 Z" />
<path fill="#a27fcc" opacity="1.00" d=" M 449.13 30.09 C 451.95 30.36 454.56 29.41 456.94 27.97 C 459.35 30.07 462.11 31.94 465.45 30.60 L 465.52 31.63 C 463.94 34.00 460.65 33.26 458.22 33.53 C 458.19 39.68 458.20 45.84 458.20 52.00 C 458.25 53.63 458.16 55.42 459.18 56.82 C 461.80 58.87 465.44 55.66 468.04 57.83 C 470.27 59.78 468.58 63.40 466.00 64.03 C 462.11 65.33 457.71 65.45 453.79 64.25 C 450.30 63.14 448.71 59.34 448.66 55.94 C 448.31 48.46 448.66 40.97 448.47 33.49 C 447.91 33.47 446.81 33.43 446.25 33.42 C 447.08 32.21 448.04 31.09 449.13 30.09 Z" />
<path fill="#a27fcc" opacity="1.00" d=" M 478.89 33.17 C 480.98 31.53 482.79 29.57 484.80 27.83 C 484.96 37.56 484.80 47.29 484.90 57.02 C 484.83 59.00 485.07 61.15 484.06 62.95 C 482.53 65.48 478.55 65.77 476.59 63.60 C 475.26 62.06 475.23 59.91 475.18 57.98 C 475.15 49.32 475.20 40.65 475.15 31.98 C 476.28 32.57 477.50 34.02 478.89 33.17 Z" />
<path fill="#a27fcc" opacity="1.00" d=" M 625.92 27.49 C 626.35 28.90 627.21 30.56 626.20 31.94 C 624.40 33.64 621.67 33.54 619.39 33.42 C 619.62 32.88 620.08 31.80 620.31 31.26 C 622.25 30.11 624.41 29.25 625.92 27.49 Z" />
<path fill="#a27fcc" opacity="1.00" d=" M 121.62 32.76 C 123.59 30.92 125.81 29.29 128.57 28.97 C 128.57 39.30 128.68 49.64 128.53 59.97 C 128.65 62.95 125.94 65.62 122.92 65.02 C 120.07 64.68 118.73 61.59 118.90 59.02 C 118.85 49.63 118.95 40.23 118.87 30.84 C 119.78 31.48 120.71 32.12 121.62 32.76 Z" />
<path fill="#a27fcc" opacity="1.00" d=" M 255.16 31.54 C 257.49 31.17 259.73 30.43 261.92 29.55 C 263.59 30.71 265.32 31.79 267.10 32.77 C 268.87 31.95 270.62 31.10 272.35 30.18 C 275.06 32.65 274.63 36.84 276.10 40.03 C 276.52 39.69 277.36 39.02 277.78 38.68 C 278.19 44.76 277.83 50.87 277.98 56.96 C 277.91 59.23 278.22 61.84 276.64 63.70 C 275.00 65.51 271.88 65.50 270.20 63.76 C 269.03 62.45 268.93 60.63 268.53 59.00 C 265.45 62.16 261.56 64.96 256.97 65.03 C 250.66 65.57 244.62 61.50 242.20 55.75 C 238.95 48.18 239.15 38.93 243.46 31.80 C 244.93 33.24 245.99 35.48 248.07 36.07 C 251.12 35.86 252.03 31.66 255.16 31.54 M 255.50 33.64 C 251.91 35.27 250.19 39.33 249.86 43.05 C 249.46 47.19 249.95 51.84 252.92 55.01 C 256.33 58.78 263.17 58.27 265.94 53.98 C 268.78 49.64 268.86 43.86 267.15 39.08 C 265.63 34.46 260.08 31.42 255.50 33.64 Z" />
<path fill="#a27fcc" opacity="1.00" d=" M 607.08 32.62 C 609.22 32.24 611.09 30.97 613.05 30.08 C 615.55 32.98 614.45 37.73 617.56 40.17 C 618.01 38.42 618.42 36.66 618.90 34.91 C 618.77 39.59 619.07 44.29 618.92 48.98 C 619.08 51.63 618.46 54.60 619.99 56.96 C 622.46 58.35 625.34 56.55 627.97 57.19 C 630.05 58.16 630.53 61.31 628.74 62.80 C 626.65 64.69 623.66 64.89 620.98 65.02 C 617.74 65.12 614.01 64.89 611.65 62.35 C 609.59 60.10 609.44 56.87 609.29 53.98 C 609.15 47.23 609.25 40.49 609.27 33.75 C 607.21 33.39 604.34 33.38 603.71 30.83 C 604.81 31.46 605.93 32.05 607.08 32.62 Z" />
<path fill="#a27fcc" opacity="1.00" d=" M 90.26 32.21 C 91.97 28.34 95.74 32.50 98.01 33.67 C 100.20 32.91 102.23 31.78 104.30 30.76 L 104.81 30.62 C 108.34 39.70 104.70 49.67 107.72 58.83 C 109.16 61.59 107.05 64.91 104.04 65.03 C 100.85 65.17 99.28 61.88 97.58 59.74 C 92.22 63.83 85.16 66.54 78.47 64.26 C 73.34 62.72 69.95 57.00 71.27 51.77 C 72.12 47.63 75.88 44.67 79.87 43.75 C 85.59 42.44 91.37 41.41 97.02 39.79 C 96.66 37.17 96.26 33.55 93.19 32.77 C 92.46 32.63 90.99 32.35 90.26 32.21 M 82.73 49.68 C 79.47 51.56 80.50 57.01 83.89 58.13 C 87.77 59.59 92.47 58.16 95.08 55.00 C 97.04 52.32 96.87 48.83 96.96 45.68 C 92.28 47.24 87.15 47.37 82.73 49.68 Z" />
<path fill="#a27fcc" opacity="1.00" d=" M 156.22 32.56 C 159.21 31.29 162.40 32.25 164.79 34.27 C 167.42 36.55 170.18 33.31 172.82 32.73 C 173.82 35.81 174.79 38.90 175.84 41.97 C 177.08 44.91 174.03 47.52 171.26 47.52 C 164.00 47.94 156.70 47.65 149.42 47.65 C 148.97 52.77 152.62 58.42 158.10 58.61 C 162.90 59.21 166.59 55.73 169.85 52.79 C 171.68 50.70 176.00 51.86 175.68 54.93 C 174.92 59.93 169.96 63.00 165.45 64.26 C 157.88 66.13 148.58 64.97 143.50 58.48 C 138.09 51.44 138.23 41.07 142.46 33.49 C 144.45 35.55 146.63 40.41 150.07 37.96 C 149.76 39.36 149.47 40.76 149.20 42.16 C 155.11 42.28 161.03 42.33 166.93 42.18 C 166.54 38.27 164.92 34.21 161.03 32.61 C 159.42 32.69 157.81 32.67 156.22 32.56 Z" />
<path fill="#a27fcc" opacity="1.00" d=" M 582.85 32.26 C 585.35 33.31 587.92 34.26 590.70 34.18 C 591.52 34.87 592.35 35.58 593.18 36.28 L 594.14 37.35 C 592.39 38.16 590.05 39.00 588.35 37.65 C 586.44 35.93 584.77 33.96 582.85 32.26 Z" />
<path fill="#a27fcc" opacity="1.00" d=" M 660.45 31.33 C 662.17 32.53 663.78 34.22 666.02 34.36 C 667.51 34.17 668.86 33.46 670.25 32.92 C 670.31 41.26 670.25 49.61 670.29 57.96 C 670.23 59.75 670.29 61.69 669.31 63.27 C 667.81 65.49 664.21 65.66 662.47 63.65 C 661.27 62.36 661.33 60.51 660.97 58.90 C 658.64 61.01 656.34 63.37 653.24 64.30 C 648.59 65.68 642.98 65.18 639.32 61.75 C 636.65 59.27 635.85 55.47 635.76 51.97 C 635.68 46.48 635.76 40.99 635.75 35.51 C 636.93 36.62 638.07 37.81 639.39 38.77 C 641.82 39.94 643.68 37.38 645.47 36.20 C 645.48 40.99 645.26 45.80 645.60 50.59 C 645.82 53.30 647.07 56.49 649.98 57.22 C 654.71 58.60 660.01 54.81 660.29 49.90 C 660.81 43.73 660.61 37.51 660.45 31.33 Z" />
<path fill="#a27fcc" opacity="1.00" d=" M 73.78 32.06 C 75.75 34.15 77.65 36.36 80.14 37.87 C 78.81 40.71 74.53 40.39 73.14 37.80 C 72.21 35.93 73.18 33.87 73.78 32.06 Z" />
<path fill="#a27fcc" opacity="1.00" d=" M 196.98 35.29 C 199.45 35.23 201.58 32.91 204.09 33.73 C 201.18 33.63 198.45 35.98 197.83 38.82 C 195.87 45.94 196.99 53.40 196.50 60.66 C 196.38 64.02 192.40 66.19 189.50 64.52 C 186.77 63.12 186.88 59.64 186.89 57.01 C 187.04 51.24 186.67 45.45 187.11 39.69 C 187.78 39.77 189.13 39.93 189.81 40.00 C 191.92 38.06 193.69 35.01 196.98 35.29 Z" />
<path fill="#a27fcc" opacity="1.00" d=" M 290.14 32.40 C 291.52 32.52 292.90 32.64 294.29 32.77 C 294.97 32.87 296.33 33.05 297.01 33.15 C 297.69 34.31 298.11 36.00 299.78 35.91 C 300.08 43.95 299.89 52.00 299.88 60.04 C 300.00 63.13 296.98 65.83 293.91 64.93 C 291.20 64.41 290.21 61.44 290.25 59.00 C 290.12 50.13 290.34 41.26 290.14 32.40 Z" />
<path fill="#a27fcc" opacity="1.00" d=" M 336.29 35.31 C 338.02 34.35 339.68 33.05 341.73 32.89 C 343.07 36.07 343.47 39.55 344.95 42.68 C 345.58 42.04 346.82 40.77 347.44 40.13 C 347.67 41.99 347.78 44.08 346.63 45.68 C 345.00 47.53 342.33 47.63 340.05 47.70 C 333.54 47.75 327.03 47.63 320.53 47.75 C 320.95 50.47 321.39 53.42 323.31 55.55 C 326.03 58.83 331.04 59.44 334.78 57.68 C 337.65 56.42 339.60 53.85 342.15 52.11 C 344.17 50.97 347.33 52.41 347.05 54.93 C 346.54 58.94 342.94 61.72 339.51 63.31 C 331.93 66.32 322.14 65.75 316.08 59.85 C 309.87 53.52 309.61 43.38 312.69 35.49 C 314.12 36.54 315.18 38.60 317.01 38.85 C 319.65 37.86 320.81 34.45 323.80 34.13 C 322.13 36.56 321.06 39.32 320.51 42.21 C 326.45 42.29 332.39 42.26 338.34 42.23 C 337.88 39.86 337.28 37.52 336.29 35.31 Z" />
<path fill="#a27fcc" opacity="1.00" d=" M 521.42 35.44 C 523.53 34.58 525.51 33.27 527.81 32.93 C 528.94 35.79 529.51 38.81 530.39 41.75 C 530.95 41.89 532.05 42.15 532.61 42.29 C 532.63 44.97 530.79 47.36 527.99 47.46 C 520.52 48.05 513.01 47.51 505.52 47.73 C 505.88 50.46 506.35 53.40 508.27 55.53 C 510.98 58.82 515.98 59.44 519.73 57.70 C 522.62 56.44 524.55 53.81 527.14 52.11 C 529.14 50.95 532.34 52.47 532.01 54.98 C 531.39 59.30 527.32 62.18 523.53 63.69 C 515.55 66.42 505.20 65.38 499.71 58.35 C 494.65 51.57 494.66 41.96 498.19 34.50 C 499.58 36.25 501.05 37.97 502.97 39.16 C 504.77 37.67 506.54 36.15 508.29 34.60 C 507.00 36.99 506.01 39.54 505.51 42.22 C 511.47 42.26 517.44 42.32 523.40 42.16 C 522.85 39.89 522.17 37.65 521.42 35.44 Z" />
<path fill="#a27fcc" opacity="1.00" d=" M 549.19 32.99 C 550.43 32.52 551.74 32.39 553.13 32.61 C 552.87 41.76 553.19 50.92 552.98 60.07 C 553.01 62.77 550.76 65.29 547.98 65.08 C 544.85 65.13 543.16 61.86 543.36 59.09 C 543.36 52.06 543.26 45.04 543.43 38.01 C 545.54 36.57 547.43 34.84 549.19 32.99 Z" />
<path fill="#a27fcc" opacity="1.00" d=" M 566.26 42.66 C 563.73 40.20 563.80 36.36 564.68 33.19 C 565.33 36.45 566.12 39.74 567.79 42.65 C 570.04 40.04 569.90 36.29 571.25 33.22 C 571.98 33.14 573.42 32.97 574.14 32.88 C 573.14 34.64 572.27 37.23 574.55 38.43 C 580.67 41.80 588.60 41.19 593.98 46.11 C 599.01 50.51 597.01 59.42 591.43 62.45 C 586.22 65.39 579.84 65.51 574.09 64.46 C 569.36 63.43 564.10 60.28 563.65 54.98 C 563.15 51.85 567.17 49.70 569.68 51.33 C 571.90 53.46 572.99 56.86 576.10 57.98 C 579.43 59.24 583.79 59.31 586.50 56.68 C 588.45 54.66 587.06 51.30 584.66 50.39 C 578.61 47.67 571.06 47.78 566.26 42.66 Z" />
<path fill="#a27fcc" opacity="1.00" d=" M 761.21 34.09 C 762.35 33.61 763.50 33.12 764.65 32.65 C 764.65 42.45 764.69 52.26 764.63 62.06 C 764.52 66.92 763.53 72.33 759.60 75.61 C 754.74 79.52 748.05 79.61 742.11 79.26 C 737.09 78.72 731.36 76.97 728.72 72.31 C 727.11 69.76 728.69 65.91 731.88 65.84 C 736.33 65.67 737.39 71.54 741.55 72.26 C 745.35 73.08 750.13 73.07 753.01 70.04 C 755.44 66.58 754.85 62.08 754.98 58.09 C 749.61 65.87 736.96 66.25 731.23 58.73 C 725.89 51.67 725.66 41.57 729.17 33.65 L 729.43 33.99 C 730.72 35.63 731.98 37.48 733.91 38.45 C 736.24 38.89 737.41 34.37 739.51 35.47 C 736.21 39.94 735.85 46.05 737.58 51.21 C 738.78 54.69 742.37 57.20 746.08 56.97 C 750.08 56.90 753.55 53.73 754.57 49.95 C 755.72 45.61 755.37 40.74 753.03 36.84 C 752.78 36.39 752.29 35.48 752.05 35.03 C 752.81 34.68 754.33 33.97 755.09 33.61 C 756.54 36.32 756.54 39.64 758.50 42.09 C 759.46 39.44 760.30 36.75 761.21 34.09 Z" />
<path fill="#a27fcc" opacity="1.00" d=" M 382.37 36.37 C 384.17 35.55 385.99 34.75 387.82 33.98 C 388.69 36.23 389.34 38.56 390.04 40.88 C 390.30 42.16 391.04 43.99 392.79 43.29 C 392.14 49.46 393.27 55.77 392.21 61.89 C 391.18 66.06 384.66 66.01 383.39 62.05 C 382.14 53.55 383.71 44.88 382.37 36.37 Z" />
<path fill="#a27fcc" opacity="1.00" d=" M 363.04 40.09 C 366.01 39.03 367.60 35.54 370.84 34.78 C 369.87 36.52 368.58 38.15 368.20 40.14 C 367.19 47.19 368.31 54.34 367.53 61.39 C 366.97 64.78 362.47 66.21 359.93 64.04 C 357.90 62.30 358.09 59.40 358.06 56.99 C 358.20 49.91 357.85 42.82 358.26 35.74 C 359.66 37.34 360.91 39.46 363.04 40.09 Z" />
<path fill="#a27fcc" opacity="1.00" d=" M 708.11 36.89 C 709.70 37.31 711.24 36.29 712.78 35.96 C 713.38 38.12 713.66 40.47 714.99 42.36 C 715.64 41.17 716.17 39.92 716.59 38.63 C 717.04 44.74 716.65 50.87 716.80 56.99 C 716.77 59.39 716.95 62.27 714.97 64.02 C 712.67 66.05 708.49 64.97 707.54 62.05 C 706.01 53.53 708.52 44.64 705.99 36.26 L 708.11 36.89 Z" />
<path fill="#a27fcc" opacity="1.00" d=" M 686.22 37.08 C 688.39 35.65 691.21 36.73 693.64 36.56 C 690.15 44.62 693.17 53.68 691.46 62.05 C 690.19 66.37 683.05 65.84 682.48 61.32 C 682.00 54.31 682.22 47.22 682.39 40.20 C 683.75 39.27 685.02 38.21 686.22 37.08 Z" />
<path fill="#a27fcc" opacity="1.00" d=" M 403.47 38.14 C 404.99 39.43 406.36 40.98 408.20 41.86 C 410.04 41.71 411.17 40.09 412.29 38.82 L 412.95 38.05 C 419.46 41.80 428.01 41.04 433.63 46.48 C 438.18 51.11 436.02 59.62 430.52 62.54 C 425.25 65.41 418.84 65.51 413.07 64.40 C 408.43 63.35 403.28 60.19 402.89 54.97 C 402.42 51.95 406.24 49.75 408.77 51.23 C 409.83 52.14 410.55 53.38 411.39 54.49 C 414.04 59.08 420.92 60.15 425.14 57.20 C 427.42 55.71 426.94 51.88 424.55 50.75 C 420.26 48.51 415.29 48.18 410.88 46.23 C 407.40 44.85 403.73 42.20 403.47 38.14 Z" />
</g>
</svg>
